<?xml version="1.0" encoding="utf-8"?>
<!-- Generator: Adobe Illustrator 20.0.0, SVG Export Plug-In . SVG Version: 6.00 Build 0)  -->
<svg version="1.1" id="Ebene_1" xmlns="http://www.w3.org/2000/svg" xmlns:xlink="http://www.w3.org/1999/xlink" x="0px" y="0px"
	 viewBox="0 0 285.8 108.5" style="enable-background:new 0 0 285.8 108.5;" xml:space="preserve">
<style type="text/css">
	.st0{fill:#163072;}
	.st1{fill:#61A4D7;}
</style>
<g>
	<g>
		<path class="st0" d="M41.6,87.2c-6.1-3.2-12.8-5.6-18.7-8.6c-6.9-3.6-16.5-9-20.8-16.4c-0.2-0.4-0.9-0.2-0.8,0.3
			c6,25.7,37.2,42.2,40.1,43.6c0.1,0.1,0.3,0.1,0.4,0c1.1-0.5,6.1-3.2,12.3-7.6c0.2-0.1,0.2-0.4,0.1-0.6
			C51.1,93.1,46.6,89.9,41.6,87.2"/>
		<path class="st1" d="M62.1,71.7c-6.1-5.4-13.1-8.6-20.5-11.6c-4.4-1.8-9-3.6-13.4-5.7c-10.9-5.3-19.9-10.7-27-20.1
			C1,34,0.4,34.1,0.4,34.6v0.7c1,20.9,13.1,28.8,32.3,36.3c3.2,1.3,6.2,2.6,8.9,4.1c12.2,6.5,19.1,14,20.6,15.7
			c0.2,0.2,0.5,0.2,0.7,0c5.3-5.6,4.5-11.1,3.3-14.3C65.3,74.8,63.9,73.3,62.1,71.7"/>
		<path class="st0" d="M85.6,23.9v-2.6c0-2.3-1.8-4.1-4.1-4.1H81H65.1c-0.5,0-0.8-0.4-0.8-0.8v-3.3V9.7c0-0.4-0.4-0.8-0.8-0.8h-2.1
			h-8.6C52.4,8.9,52,8.5,52,8V1.3c0-0.4-0.4-0.8-0.8-0.8h-9h-1.6c-0.8,0,0,0-2,1.2c-0.4,0.2-0.8,0.4-1.2,0.5c-2.9,1.2-6,1.4-9.1,0.8
			c-1.6-0.3-3.1-0.7-4.6-1.2l-3.2-1.3c-0.7-0.1-1.2,0.6-0.9,1.1l1.9,3.6c1.4,2.7,3,4.9,4.8,6.7c-2.6-0.1-5.1-0.4-6.9-1
			c-0.2-0.1-0.4-0.1-0.7-0.2c-4.3-1.6-8.2-4.1-11.4-7.4L5,0.7C4.5,0.3,3.7,0.7,3.7,1.4v4.1C3.7,24.2,21.8,31,21.8,31s-3.5,1-5.8,0.6
			c0,0-0.1,0-0.1,0c-0.3-0.1-0.5,0.3-0.3,0.5c3.4,3.8,10.2,7.6,10.2,7.6c8.5,3.8,16.6,4,16.6,4s-2.9,1.4-4,1.6c-0.2,0-0.2,0.3,0,0.4
			c7.3,2.3,15.8,5.7,20.9,7.8c4.2,1.7,8.1,3.9,11.7,6.5c5.6,4.1,6.7,9.4,7,11.8c0,0.4,0.6,0.5,0.8,0.2c5.5-8.8,5.5-14.5,5.5-14.5
			c0.6-6-4.7-8-4.7-8c4.8,0.2,5.7-3.4,5.9-5.9c-1.5,1.2-3.5,2-5.7,2c-4.5,0-8.2-3.1-8.2-6.9c0-3.8,3.7-6.9,8.2-6.9
			c2.2,0,4.3,0.8,5.7,2V31h0l0-0.5c0-2.2-2.5-2.7-2.5-2.7c0.5-0.2,1-0.6,1.3-0.9C85.1,26.1,85.6,25.1,85.6,23.9"/>
	</g>
	<g>
		<path class="st0" d="M108.9,58.6v2.1h5.5v3.1h-5.5v4h-4.1V55.5h9.9v3.1H108.9z"/>
		<path class="st0" d="M119.3,66.1l-0.6,1.7h-4.2l5.2-12.4h4.2l5,12.4h-4.4l-0.6-1.7H119.3z M121.7,59.6l-1.3,3.6h2.6L121.7,59.6z"
			/>
		<path class="st0" d="M140.9,57.6l-2.4,2.8c-0.7-1-1.9-1.7-2.8-1.7c-1.5,0-2.6,1.2-2.6,2.8c0,1.7,1.1,2.9,2.6,2.9
			c0.9,0,2-0.5,2.8-1.4l2.4,2.5c-1.4,1.5-3.5,2.5-5.4,2.5c-3.8,0-6.5-2.7-6.5-6.4c0-3.6,2.8-6.3,6.7-6.3
			C137.6,55.4,139.7,56.3,140.9,57.6z"/>
		<path class="st0" d="M150,67.9v-4.5h-3.8v4.5h-4.1V55.5h4.1v4.8h3.8v-4.8h4.1v12.4H150z"/>
		<path class="st0" d="M164.1,67.9v-4.5h-3.8v4.5h-4.1V55.5h4.1v4.8h3.8v-4.8h4.1v12.4H164.1z"/>
		<path class="st0" d="M183.3,61.7c0,3.7-2.9,6.4-6.8,6.4c-3.9,0-6.8-2.7-6.8-6.4c0-3.7,2.9-6.3,6.8-6.3
			C180.4,55.4,183.3,58,183.3,61.7z M173.9,61.7c0,1.7,1.2,2.9,2.6,2.9s2.5-1.3,2.5-2.9c0-1.7-1.1-2.9-2.5-2.9
			C175.1,58.8,173.9,60,173.9,61.7z"/>
		<path class="st0" d="M196.1,57.6l-2.4,2.8c-0.7-1-1.9-1.7-2.8-1.7c-1.5,0-2.6,1.2-2.6,2.8c0,1.7,1.1,2.9,2.6,2.9
			c0.9,0,2-0.5,2.8-1.4l2.4,2.5c-1.4,1.5-3.5,2.5-5.4,2.5c-3.8,0-6.5-2.7-6.5-6.4c0-3.6,2.8-6.3,6.7-6.3
			C192.7,55.4,194.8,56.3,196.1,57.6z"/>
		<path class="st0" d="M205.1,67.9v-4.5h-3.8v4.5h-4.1V55.5h4.1v4.8h3.8v-4.8h4.1v12.4H205.1z"/>
		<path class="st0" d="M222.1,56.8l-1.5,3.1c-1.3-0.7-3.2-1.4-4.2-1.4c-0.5,0-0.8,0.1-0.8,0.5c0,1.6,6.4,0.6,6.4,5.1
			c0,2.8-2.4,4-5.2,4c-2.2,0-4.5-0.7-6.2-2l1.5-3.1c1.3,1.1,3.5,1.9,4.7,1.9c0.6,0,1-0.2,1-0.6c0-1.6-6.4-0.5-6.4-4.9
			c0-2.5,2.1-4,5.3-4C218.7,55.3,220.7,55.9,222.1,56.8z"/>
		<path class="st0" d="M234.7,57.6l-2.4,2.8c-0.7-1-1.9-1.7-2.8-1.7c-1.5,0-2.6,1.2-2.6,2.8c0,1.7,1.1,2.9,2.6,2.9
			c0.9,0,2-0.5,2.8-1.4l2.4,2.5c-1.4,1.5-3.5,2.5-5.4,2.5c-3.8,0-6.5-2.7-6.5-6.4c0-3.6,2.8-6.3,6.7-6.3
			C231.3,55.4,233.4,56.3,234.7,57.6z"/>
		<path class="st0" d="M243.8,67.9v-4.5h-3.8v4.5h-4.1V55.5h4.1v4.8h3.8v-4.8h4.1v12.4H243.8z"/>
		<path class="st0" d="M261.6,62.6c0,3.3-2.3,5.4-5.9,5.4c-3.6,0-6-2.1-6-5.4v-7.1h4.1v7.1c0,1.2,0.9,2,1.9,2c1,0,1.8-0.8,1.8-2
			v-7.1h4.1V62.6z"/>
		<path class="st0" d="M272.8,64.5v3.4h-9.2V55.5h4.1v9H272.8z"/>
		<path class="st0" d="M278.3,58.6v1.5h5.8v3.1h-5.8v1.5h6.5v3.1h-10.6V55.5h10.5v3.1H278.3z"/>
	</g>
	<g>
		<path class="st1" d="M115.5,89l-1.7-7.4L112,89h-4.2l-4-12.4h4.4l1.9,8.1l1.8-8.1l4,0l1.9,8.1l1.8-8.1h4.2l-4,12.4H115.5z"/>
		<path class="st1" d="M124.7,89V76.7h4.1V89H124.7z"/>
		<path class="st1" d="M134.8,79.8v1.5h5.8v3.1h-5.8v1.5h6.5V89h-10.6V76.7h10.5v3.1H134.8z"/>
		<path class="st1" d="M151.7,89l-4.9-6.3V89h-3.7V76.7h3.4l4.9,6.3v-6.3h3.7V89H151.7z"/>
		<path class="st1" d="M161.1,79.8v1.5h5.8v3.1h-5.8v1.5h6.5V89H157V76.7h10.5v3.1H161.1z"/>
		<path class="st1" d="M175,85.8h-1.5V89h-4.1V76.7h6c3.3,0,5.3,1.6,5.3,4.4c0,1.8-0.7,3.1-2,3.9l2.4,4h-4.6L175,85.8z M175.4,82.7
			c0.9,0,1.4-0.5,1.4-1.5c0-0.9-0.5-1.4-1.4-1.4h-1.9v2.9H175.4z"/>
		<path class="st1" d="M194.6,89l-4.9-6.3V89H186V76.7h3.4l4.9,6.3v-6.3h3.7V89H194.6z"/>
		<path class="st1" d="M204.1,79.8v1.5h5.8v3.1h-5.8v1.5h6.5V89H200V76.7h10.5v3.1H204.1z"/>
		<path class="st1" d="M224,83.8c0,3.3-2.3,5.4-5.9,5.4c-3.6,0-6-2.1-6-5.4v-7.1h4.1v7.1c0,1.2,0.9,2,1.9,2c1,0,1.8-0.8,1.8-2v-7.1
			h4.1V83.8z"/>
		<path class="st1" d="M236.5,77.9l-1.5,3.1c-1.3-0.7-3.2-1.4-4.2-1.4c-0.5,0-0.8,0.1-0.8,0.5c0,1.6,6.4,0.6,6.4,5.1
			c0,2.8-2.4,4-5.2,4c-2.2,0-4.5-0.7-6.2-2l1.5-3.1c1.3,1.1,3.5,1.9,4.7,1.9c0.6,0,1-0.2,1-0.6c0-1.6-6.4-0.5-6.4-4.9
			c0-2.5,2.1-4,5.3-4C233.1,76.5,235.1,77.1,236.5,77.9z"/>
		<path class="st1" d="M244.5,79.9V89h-4.1v-9.1h-3.5v-3.2H248v3.2H244.5z"/>
		<path class="st1" d="M251.5,87.3l-0.6,1.7h-4.2l5.2-12.4h4.2l5,12.4h-4.4l-0.6-1.7H251.5z M253.9,80.7l-1.3,3.6h2.6L253.9,80.7z"
			/>
		<path class="st1" d="M267.6,76.7c4.1,0,6.7,2.4,6.7,6.2c0,3.8-2.7,6.2-6.9,6.2H262V76.7H267.6z M266.1,85.8h1.5
			c1.5,0,2.4-1.2,2.4-3c0-1.8-1-3-2.6-3h-1.3V85.8z"/>
		<path class="st1" d="M281.9,79.9V89h-4.1v-9.1h-3.5v-3.2h11.1v3.2H281.9z"/>
	</g>
	<g>
		<g>
			<path class="st0" d="M105.4,104.4l-0.8,1.7h-0.8l3-6.7h0.8l3,6.7h-0.8l-0.8-1.7H105.4z M107.2,100.3l-1.5,3.4h3L107.2,100.3z"/>
			<path class="st0" d="M115.8,106.1H115V105c-0.3,0.8-1,1.2-1.9,1.2c-1.2,0-1.9-0.7-1.9-2V101h0.8v2.9c0,0.9,0.5,1.4,1.4,1.4
				c1,0,1.7-0.8,1.7-1.9V101h0.8V106.1z"/>
			<path class="st0" d="M120.5,101.5l-0.3,0.6c-0.4-0.3-0.9-0.4-1.4-0.4c-0.6,0-1,0.2-1,0.7c0,1.1,2.8,0.5,2.8,2.4
				c0,1-0.9,1.4-1.9,1.4c-0.7,0-1.5-0.2-1.9-0.7l0.3-0.6c0.4,0.4,1.1,0.6,1.7,0.6c0.6,0,1.1-0.2,1.1-0.7c0-1.2-2.8-0.6-2.8-2.4
				c0-1,0.8-1.4,1.8-1.4C119.5,101,120.1,101.2,120.5,101.5z"/>
			<path class="st0" d="M124.6,105.8c-0.4,0.2-0.7,0.4-1.1,0.4c-0.7,0-1.3-0.4-1.3-1.4v-2.9h-0.7v-0.6h0.7v-1.3h0.7v1.3l1.6,0v0.6
				h-1.6v2.8c0,0.6,0.2,0.8,0.7,0.8c0.3,0,0.5-0.1,0.8-0.3L124.6,105.8z"/>
			<path class="st0" d="M126.4,102.2c0.3-0.7,1-1.1,1.8-1.2v0.8c-1.1,0-1.7,0.6-1.8,1.6v2.7h-0.8V101h0.8V102.2z"/>
			<path class="st0" d="M130.1,99.6c0,0.3-0.2,0.5-0.5,0.5c-0.3,0-0.5-0.2-0.5-0.5c0-0.3,0.2-0.5,0.5-0.5
				C129.9,99.1,130.1,99.3,130.1,99.6z M129.3,106.1V101h0.7v5.1H129.3z"/>
			<path class="st0" d="M135,105.3c-0.4,0.5-1,0.8-1.9,0.8c-1,0-1.7-0.7-1.7-1.5c0-0.9,0.7-1.4,1.9-1.5h1.7v-0.3
				c0-0.7-0.5-1.2-1.4-1.2c-0.6,0-1.1,0.2-1.6,0.6l-0.3-0.5c0.7-0.4,1.2-0.7,2.1-0.7c1.3,0,1.9,0.7,2,1.8l0,3.4H135V105.3z
				 M135,104.4v-0.6h-1.6c-0.8,0-1.3,0.3-1.3,0.8c0,0.6,0.5,0.9,1.2,0.9C134.1,105.5,134.8,105.1,135,104.4z"/>
			<path class="st0" d="M142,103v3.1h-0.8v-2.9c0-0.9-0.5-1.4-1.4-1.4c-1,0-1.6,0.7-1.7,1.6v2.7h-0.8V101h0.8v1.1
				c0.4-0.8,1-1.1,2-1.1C141.3,101,142,101.8,142,103z"/>
			<path class="st0" d="M151.1,106.1l-4-5.4v5.4h-0.8v-6.7h0.8l4,5.4v-5.4h0.8v6.7H151.1z"/>
			<path class="st0" d="M158.2,103.9H154c0.1,1,0.9,1.6,1.8,1.6c0.6,0,1.2-0.2,1.6-0.6l0.4,0.4c-0.5,0.5-1.2,0.8-2,0.8
				c-1.5,0-2.5-1-2.5-2.6c0-1.5,1-2.6,2.5-2.6C157.5,101,158.3,102.2,158.2,103.9z M157.5,103.3c0-1-0.7-1.6-1.7-1.6
				c-1,0-1.7,0.6-1.8,1.6H157.5z"/>
			<path class="st0" d="M162.1,105.8c-0.4,0.2-0.7,0.4-1.1,0.4c-0.7,0-1.3-0.4-1.3-1.4v-2.9h-0.7v-0.6h0.7v-1.3h0.7v1.3l1.6,0v0.6
				h-1.6v2.8c0,0.6,0.2,0.8,0.7,0.8c0.3,0,0.5-0.1,0.8-0.3L162.1,105.8z"/>
			<path class="st0" d="M168,106.1l-1.5-4.1l-1.5,4.1h-0.8l-1.9-5.1h0.8l1.5,4.3l1.5-4.3h0.8l1.5,4.3l1.5-4.3h0.8l-1.9,5.1H168z"/>
			<path class="st0" d="M176,103.6c0,1.5-1.1,2.6-2.6,2.6c-1.5,0-2.6-1-2.6-2.6c0-1.5,1.1-2.6,2.6-2.6
				C174.9,101,176,102.1,176,103.6z M171.6,103.6c0,1.1,0.8,1.9,1.8,1.9c1.1,0,1.8-0.8,1.8-1.9c0-1.1-0.8-1.9-1.8-1.9
				C172.4,101.7,171.6,102.5,171.6,103.6z"/>
			<path class="st0" d="M178.1,102.2c0.3-0.7,1-1.1,1.8-1.2v0.8c-1.1,0-1.7,0.6-1.8,1.6v2.7h-0.8V101h0.8V102.2z"/>
			<path class="st0" d="M181.7,104.7v1.5h-0.8V99h0.8v4.7l2.6-2.6h0.9l-1.9,2l2.1,3.1h-0.9l-1.7-2.6L181.7,104.7z"/>
			<path class="st0" d="M189.8,100.5v0.7h1.5v0.6h-1.5v4.3H189v-4.3h-0.7v-0.6h0.7v-0.6c0-1.1,0.8-1.7,1.6-1.7
				c0.4,0,0.8,0.1,1.1,0.4l-0.3,0.6c-0.2-0.2-0.5-0.3-0.8-0.3C190.2,99.6,189.8,100,189.8,100.5z"/>
			<path class="st0" d="M196.5,103.6c0,1.5-1.1,2.6-2.6,2.6c-1.5,0-2.6-1-2.6-2.6c0-1.5,1.1-2.6,2.6-2.6
				C195.5,101,196.5,102.1,196.5,103.6z M192.2,103.6c0,1.1,0.8,1.9,1.8,1.9c1.1,0,1.8-0.8,1.8-1.9c0-1.1-0.8-1.9-1.8-1.9
				C192.9,101.7,192.2,102.5,192.2,103.6z"/>
			<path class="st0" d="M198.6,102.2c0.3-0.7,1-1.1,1.8-1.2v0.8c-1.1,0-1.7,0.6-1.8,1.6v2.7h-0.8V101h0.8V102.2z"/>
			<path class="st0" d="M208.8,106.1v-3h-4.1v3H204v-6.7h0.8v3h4.1v-3h0.8v6.7H208.8z"/>
			<path class="st0" d="M212.4,99.6c0,0.3-0.2,0.5-0.5,0.5c-0.3,0-0.5-0.2-0.5-0.5c0-0.3,0.2-0.5,0.5-0.5
				C212.2,99.1,212.4,99.3,212.4,99.6z M211.5,106.1V101h0.7v5.1H211.5z"/>
			<path class="st0" d="M218.5,105.6c0,1.5-1,2.4-2.6,2.4c-0.8,0-1.5-0.3-2.1-0.7l0.3-0.6c0.5,0.4,1,0.6,1.7,0.6
				c1.1,0,1.8-0.7,1.8-1.7v-0.8c-0.4,0.7-1,1.1-1.9,1.1c-1.4,0-2.3-1-2.3-2.5c0-1.4,0.9-2.4,2.3-2.4c0.9,0,1.5,0.4,1.9,1.1v-1h0.8
				V105.6z M217.8,103.5c0-1.1-0.7-1.8-1.7-1.8c-1,0-1.7,0.8-1.7,1.8c0,1,0.7,1.8,1.7,1.8C217.1,105.3,217.8,104.5,217.8,103.5z"/>
			<path class="st0" d="M224.9,103v3.1h-0.7v-2.9c0-0.9-0.5-1.4-1.4-1.4c-1.1,0-1.7,0.8-1.7,1.9v2.5h-0.8V99h0.8v3.2
				c0.3-0.8,1-1.2,2-1.2C224.2,101,224.9,101.8,224.9,103z"/>
			<path class="st0" d="M231,103.9h-4.1c0.1,1,0.9,1.6,1.8,1.6c0.6,0,1.2-0.2,1.6-0.6l0.4,0.4c-0.5,0.5-1.2,0.8-2,0.8
				c-1.5,0-2.5-1-2.5-2.6c0-1.5,1-2.6,2.5-2.6C230.2,101,231,102.2,231,103.9z M230.3,103.3c0-1-0.7-1.6-1.7-1.6
				c-1,0-1.7,0.6-1.8,1.6H230.3z"/>
			<path class="st0" d="M233,102.2c0.3-0.7,1-1.1,1.8-1.2v0.8c-1.1,0-1.7,0.6-1.8,1.6v2.7h-0.8V101h0.8V102.2z"/>
			<path class="st0" d="M239.2,100.1v2.2h3.4v0.7h-3.4v2.3h3.9v0.7h-4.7v-6.7h4.6v0.7H239.2z"/>
			<path class="st0" d="M249.2,106.1h-0.7V105c-0.4,0.7-1.1,1.1-2,1.1c-1.4,0-2.4-1.1-2.4-2.6c0-1.5,1-2.6,2.4-2.6
				c0.9,0,1.6,0.4,2,1.1V99h0.7V106.1z M248.5,103.6c0-1.1-0.8-1.9-1.8-1.9c-1.1,0-1.8,0.8-1.8,1.9c0,1.1,0.8,1.9,1.8,1.9
				C247.7,105.5,248.5,104.7,248.5,103.6z"/>
			<path class="st0" d="M255.5,106.1h-0.7V105c-0.3,0.8-1,1.2-1.9,1.2c-1.2,0-1.9-0.7-1.9-2V101h0.8v2.9c0,0.9,0.5,1.4,1.4,1.4
				c1,0,1.7-0.8,1.7-1.9V101h0.7V106.1z"/>
			<path class="st0" d="M261.3,101.8l-0.4,0.5c-0.4-0.4-0.9-0.6-1.5-0.6c-1,0-1.8,0.8-1.8,1.9c0,1.1,0.7,1.9,1.8,1.9
				c0.7,0,1.2-0.2,1.6-0.7l0.4,0.5c-0.5,0.5-1.2,0.9-2,0.9c-1.5,0-2.5-1-2.5-2.6c0-1.5,1-2.6,2.5-2.6
				C260.1,101,260.8,101.3,261.3,101.8z"/>
			<path class="st0" d="M265.6,105.3c-0.4,0.5-1,0.8-1.9,0.8c-1,0-1.7-0.7-1.7-1.5c0-0.9,0.7-1.4,1.9-1.5h1.7v-0.3
				c0-0.7-0.5-1.2-1.4-1.2c-0.6,0-1.1,0.2-1.6,0.6l-0.3-0.5c0.7-0.4,1.2-0.7,2.1-0.7c1.3,0,1.9,0.7,2,1.8l0,3.4h-0.7V105.3z
				 M265.6,104.4v-0.6H264c-0.8,0-1.3,0.3-1.3,0.8c0,0.6,0.5,0.9,1.2,0.9C264.7,105.5,265.4,105.1,265.6,104.4z"/>
			<path class="st0" d="M270.6,105.8c-0.4,0.2-0.7,0.4-1.1,0.4c-0.7,0-1.3-0.4-1.3-1.4v-2.9h-0.7v-0.6h0.7v-1.3h0.7v1.3l1.6,0v0.6
				h-1.6v2.8c0,0.6,0.2,0.8,0.7,0.8c0.3,0,0.5-0.1,0.8-0.3L270.6,105.8z"/>
			<path class="st0" d="M272.6,99.6c0,0.3-0.2,0.5-0.5,0.5c-0.3,0-0.5-0.2-0.5-0.5c0-0.3,0.2-0.5,0.5-0.5
				C272.4,99.1,272.6,99.3,272.6,99.6z M271.7,106.1V101h0.7v5.1H271.7z"/>
			<path class="st0" d="M278.9,103.6c0,1.5-1.1,2.6-2.6,2.6c-1.5,0-2.6-1-2.6-2.6c0-1.5,1.1-2.6,2.6-2.6
				C277.9,101,278.9,102.1,278.9,103.6z M274.6,103.6c0,1.1,0.8,1.9,1.8,1.9c1.1,0,1.8-0.8,1.8-1.9c0-1.1-0.8-1.9-1.8-1.9
				C275.3,101.7,274.6,102.5,274.6,103.6z"/>
			<path class="st0" d="M284.9,103v3.1h-0.7v-2.9c0-0.9-0.5-1.4-1.4-1.4c-1,0-1.6,0.7-1.7,1.6v2.7h-0.8V101h0.8v1.1
				c0.4-0.8,1-1.1,2-1.1C284.2,101,284.9,101.8,284.9,103z"/>
		</g>
	</g>
</g>
</svg>
